<svg xmlns="http://www.w3.org/2000/svg" xmlns:xlink="http://www.w3.org/1999/xlink" viewBox="0 0 64 64"><defs><style>.cls-1{fill:url(#linear-gradient);}.cls-2{fill:#77cacb;}.cls-3{fill:#cf4055;}.cls-4{fill:url(#linear-gradient-3);}.cls-5{fill:url(#linear-gradient-4);}.cls-6{fill:url(#linear-gradient-5);}.cls-7{fill:url(#linear-gradient-6);}.cls-8{fill:url(#linear-gradient-7);}.cls-9{fill:url(#linear-gradient-8);}.cls-10{fill:url(#linear-gradient-9);}</style><linearGradient id="linear-gradient" x1="32" y1="63" x2="32" y2="1" gradientUnits="userSpaceOnUse"><stop offset="0" stop-color="#9dd5df"/><stop offset="1" stop-color="#c3e1f5"/></linearGradient><linearGradient id="linear-gradient-3" x1="47" y1="48" x2="47" y2="44" gradientUnits="userSpaceOnUse"><stop offset="0" stop-color="#da5466"/><stop offset="1" stop-color="#f4929c"/></linearGradient><linearGradient id="linear-gradient-4" x1="25" y1="25" x2="25" y2="19" xlink:href="#linear-gradient-3"/><linearGradient id="linear-gradient-5" x1="32" y1="49" x2="32" y2="31" xlink:href="#linear-gradient-3"/><linearGradient id="linear-gradient-6" x1="41.19" y1="32.81" x2="41.19" y2="28.81" xlink:href="#linear-gradient-3"/><linearGradient id="linear-gradient-7" x1="22.81" y1="51.19" x2="22.81" y2="47.19" xlink:href="#linear-gradient-3"/><linearGradient id="linear-gradient-8" x1="41.19" y1="51.19" x2="41.19" y2="47.19" xlink:href="#linear-gradient-3"/><linearGradient id="linear-gradient-9" x1="22.81" y1="32.81" x2="22.81" y2="28.81" xlink:href="#linear-gradient-3"/></defs><title>Droplet</title><g id="Droplet"><path class="cls-1" d="M53,42.33A20.83,20.83,0,0,1,32,63,20.83,20.83,0,0,1,11,42.33C11,25.11,32,1,32,1S53,25.11,53,42.33Z"/><path class="cls-1" d="M53,42.33A20.83,20.83,0,0,1,32,63,20.83,20.83,0,0,1,11,42.33C11,25.11,32,1,32,1S53,25.11,53,42.33Z"/><path class="cls-2" d="M53,42.33A20.83,20.83,0,0,1,32,63,20.83,20.83,0,0,1,11,42.33c0-.52,0-1,.06-1.58A20.84,20.84,0,0,0,32,60,20.84,20.84,0,0,0,52.94,40.75C53,41.28,53,41.81,53,42.33Z"/><circle class="cls-3" cx="26" cy="57" r="2"/><path class="cls-4" d="M47,48a2,2,0,1,1,2-2A2,2,0,0,1,47,48Zm0-2h0Zm0,0h0Zm0,0h0Zm0,0h0Zm0,0h0Zm0,0h0Zm0,0h0Zm0,0h0Z"/><circle class="cls-5" cx="25" cy="22" r="3"/><path class="cls-3" d="M39,24a2,2,0,1,1,2-2A2,2,0,0,1,39,24Zm0-2h0Zm0,0h0Zm0,0h0Zm0,0h0Zm0,0h0Zm0,0h0Zm0,0h0Zm0,0h0Z"/><path class="cls-3" d="M23,41H20a1,1,0,1,1,0-2h3a1,1,0,1,1,0,2Z"/><path class="cls-3" d="M44,41H41a1,1,0,0,1,0-2h3a1,1,0,0,1,0,2Z"/><path class="cls-3" d="M32,32a1,1,0,0,1-1-1V28a1,1,0,1,1,2,0v3A1,1,0,0,1,32,32Z"/><path class="cls-3" d="M32,53a1,1,0,0,1-1-1V49a1,1,0,0,1,2,0v3A1,1,0,0,1,32,53Z"/><circle class="cls-6" cx="32" cy="40" r="9"/><path class="cls-3" d="M38.36,46.36A9,9,0,0,1,23.06,39a9,9,0,0,0,17.88,0A8.92,8.92,0,0,1,38.36,46.36Z"/><path class="cls-3" d="M27.05,36.05a1,1,0,0,1-.71-.29l-3.53-3.54a1,1,0,0,1,1.41-1.41l3.54,3.53a1,1,0,0,1,0,1.42A1,1,0,0,1,27.05,36.05Z"/><path class="cls-3" d="M40.49,49.49a1,1,0,0,1-.71-.3l-3.54-3.53a1,1,0,0,1,1.42-1.42l3.53,3.54a1,1,0,0,1,0,1.41A1,1,0,0,1,40.49,49.49Z"/><path class="cls-3" d="M37,36.05a1,1,0,0,1-.71-.29,1,1,0,0,1,0-1.42l3.54-3.53a1,1,0,0,1,1.41,1.41l-3.53,3.54A1,1,0,0,1,37,36.05Z"/><path class="cls-3" d="M23.51,49.49a1,1,0,0,1-.7-.3,1,1,0,0,1,0-1.41l3.53-3.54a1,1,0,0,1,1.42,1.42l-3.54,3.53A1,1,0,0,1,23.51,49.49Z"/><path class="cls-3" d="M28.46,41.29a2,2,0,0,1-1.41-.58,2,2,0,0,1,0-2.83,2,2,0,0,1,2.83,0h0a2,2,0,0,1,0,2.83A2,2,0,0,1,28.46,41.29Zm0-2Z"/><circle class="cls-3" cx="34.83" cy="37.88" r="1.5"/><circle class="cls-3" cx="32" cy="44.24" r="1"/><path class="cls-7" d="M41.19,32.81a2,2,0,1,1,1.42-.59A2,2,0,0,1,41.19,32.81Zm0-2Z"/><path class="cls-8" d="M22.81,51.19a2,2,0,1,1,1.41-.58A2,2,0,0,1,22.81,51.19Zm0-2Z"/><path class="cls-9" d="M41.19,51.19a2,2,0,0,1-1.41-.58,2,2,0,1,1,1.41.58Zm0-2Z"/><path class="cls-10" d="M22.81,32.81a2,2,0,1,1,1.41-.59A2,2,0,0,1,22.81,32.81Zm0-2Z"/></g></svg>