<svg xmlns="http://www.w3.org/2000/svg" xmlns:xlink="http://www.w3.org/1999/xlink" viewBox="0 0 64 64"><defs><style>.cls-1{fill:url(#linear-gradient);}.cls-2{fill:#eab39b;}.cls-3{fill:url(#linear-gradient-2);}.cls-4{fill:#cf4055;}.cls-5{fill:url(#linear-gradient-3);}.cls-6{fill:url(#linear-gradient-4);}</style><linearGradient id="linear-gradient" x1="24.55" y1="63" x2="24.55" y2="1" gradientUnits="userSpaceOnUse"><stop offset="0" stop-color="#f2c4b0"/><stop offset="1" stop-color="#ffe3d7"/></linearGradient><linearGradient id="linear-gradient-2" x1="57" y1="36" x2="57" y2="1" gradientUnits="userSpaceOnUse"><stop offset="0" stop-color="#9dd5df"/><stop offset="1" stop-color="#c3e1f5"/></linearGradient><linearGradient id="linear-gradient-3" x1="21.94" y1="26" x2="21.94" y2="12" gradientUnits="userSpaceOnUse"><stop offset="0" stop-color="#da5466"/><stop offset="1" stop-color="#f4929c"/></linearGradient><linearGradient id="linear-gradient-4" x1="57" y1="32" x2="57" y2="10" xlink:href="#linear-gradient-3"/></defs><title>Fever</title><g id="Fever"><path class="cls-1" d="M48.1,35.84A2.63,2.63,0,0,1,46,38.42L43.1,39v3l.18.27A1.77,1.77,0,0,1,41.81,45h-1a1.74,1.74,0,0,1,1.59,1,1.84,1.84,0,0,1,.17.77A1.71,1.71,0,0,1,42.1,48v2.86a6.13,6.13,0,0,1-7.83,5.9L28.1,55v8H5.1s.37-7.78.69-13.79A31,31,0,0,0,3.44,35.62l-.07-.16A30.86,30.86,0,0,1,1,23.47v-1a21.55,21.55,0,0,1,43.1,0v2.87a2.74,2.74,0,0,1-.28,1.19A2.67,2.67,0,0,0,44,29.31l3.58,5A2.63,2.63,0,0,1,48.1,35.84Z"/><path class="cls-2" d="M41.81,45h-1a1.74,1.74,0,0,1,1.59,1H37.51a2.41,2.41,0,0,0-1.71.71,1,1,0,0,1-1.41-1.42A4.39,4.39,0,0,1,37.51,44h5.88A1.73,1.73,0,0,1,41.81,45Z"/><path class="cls-3" d="M61,25.54V5a4,4,0,0,0-8,0V25.54a6,6,0,1,0,8,0Z"/><path class="cls-4" d="M26.89,15.05a1,1,0,0,1-.71-.29,1,1,0,0,1,0-1.42l2.05-2.05a1,1,0,0,1,1.41,0,1,1,0,0,1,0,1.42l-2.05,2A1,1,0,0,1,26.89,15.05Z"/><path class="cls-4" d="M14.94,27a1,1,0,0,1-.71-1.71l2.05-2.05a1,1,0,0,1,1.41,0,1,1,0,0,1,0,1.42l-2.05,2.05A1,1,0,0,1,14.94,27Z"/><path class="cls-4" d="M28.94,27a1,1,0,0,1-.71-.29l-2.05-2.05a1,1,0,0,1,0-1.42,1,1,0,0,1,1.41,0l2.05,2.05a1,1,0,0,1-.7,1.71Z"/><path class="cls-4" d="M17,15.05a1,1,0,0,1-.71-.29l-2.05-2a1,1,0,0,1,0-1.42,1,1,0,0,1,1.41,0l2.05,2.05a1,1,0,0,1-.7,1.71Z"/><circle class="cls-5" cx="21.94" cy="19" r="7"/><path class="cls-4" d="M28.94,19a7,7,0,0,1-14,0A5.47,5.47,0,0,1,15,18a7,7,0,0,0,13.84,0A5.47,5.47,0,0,1,28.94,19Z"/><path class="cls-4" d="M21.94,14a1,1,0,0,1-1-1V10a1,1,0,0,1,2,0v3A1,1,0,0,1,21.94,14Z"/><path class="cls-4" d="M21.94,29a1,1,0,0,1-1-1V25a1,1,0,0,1,2,0v3A1,1,0,0,1,21.94,29Z"/><path class="cls-4" d="M30.94,20h-3a1,1,0,1,1,0-2h3a1,1,0,0,1,0,2Z"/><path class="cls-4" d="M15.94,20h-3a1,1,0,1,1,0-2h3a1,1,0,1,1,0,2Z"/><circle class="cls-4" cx="19.44" cy="17.5" r="1.5"/><circle class="cls-4" cx="24.94" cy="18" r="1"/><circle class="cls-4" cx="21.94" cy="21" r="1"/><path class="cls-6" d="M58,28.28V11a1,1,0,0,0-2,0V28.28a2,2,0,1,0,2,0Z"/></g></svg>