<svg xmlns="http://www.w3.org/2000/svg" xmlns:xlink="http://www.w3.org/1999/xlink" viewBox="0 0 64 64"><defs><style>.cls-1{fill:#8288a1;}.cls-2{fill:url(#linear-gradient);}.cls-3{fill:url(#linear-gradient-2);}.cls-4{fill:url(#linear-gradient-3);}.cls-5{fill:url(#linear-gradient-4);}.cls-6{fill:#eab39b;}</style><linearGradient id="linear-gradient" x1="18" y1="9.68" x2="18" y2="5" gradientUnits="userSpaceOnUse"><stop offset="0" stop-color="#a0a6ba"/><stop offset="1" stop-color="#c6ccda"/></linearGradient><linearGradient id="linear-gradient-2" x1="41.5" y1="63" x2="41.5" y2="31.86" gradientUnits="userSpaceOnUse"><stop offset="0" stop-color="#f2c4b0"/><stop offset="1" stop-color="#ffe3d7"/></linearGradient><linearGradient id="linear-gradient-3" x1="7" y1="17" x2="35" y2="17" xlink:href="#linear-gradient"/><linearGradient id="linear-gradient-4" x1="31" y1="39" x2="31" y2="28" gradientUnits="userSpaceOnUse"><stop offset="0" stop-color="#9dd5df"/><stop offset="1" stop-color="#c3e1f5"/></linearGradient></defs><title>Hand Wash</title><g id="Hand_Wash" data-name="Hand Wash"><path class="cls-1" d="M25,0H11a1,1,0,0,0,0,2h6V5a1,1,0,0,0,2,0V2h6a1,1,0,0,0,0-2Z"/><polyline class="cls-2" points="15 9.68 15 5 21 5 21 9.68"/><path class="cls-3" d="M63,46V60H57.73a14.59,14.59,0,0,1-8.85,3H28.64A2.6,2.6,0,0,1,26,60.76,2.51,2.51,0,0,1,28.5,58H25.64a2.71,2.71,0,0,1-2.11-1A2.38,2.38,0,0,1,23,55.76,2.51,2.51,0,0,1,25.5,53H22.64a2.71,2.71,0,0,1-2.11-1A2.38,2.38,0,0,1,20,50.76,2.51,2.51,0,0,1,22.5,48h3A2.51,2.51,0,0,1,23,45.24,2.6,2.6,0,0,1,25.64,43H46.26l-4.89-4.89a4,4,0,0,1,0-5.66,2,2,0,0,1,2.83,0L51,39l.92.31a9.09,9.09,0,0,1,6,6.69Z"/><path class="cls-4" d="M35,23.26V25H28V24a4,4,0,0,0-4-4h-.26a7,7,0,0,1-10.63,1H7V11h6.11a7,7,0,0,1,10.63,1h0A11.26,11.26,0,0,1,35,23.26Z"/><path class="cls-5" d="M34.67,35.33a3.67,3.67,0,0,1-7.34,0C27.33,32.28,31,28,31,28S34.67,32.28,34.67,35.33Z"/><path class="cls-6" d="M40,58a1,1,0,0,1-1,1H26.5a2.49,2.49,0,0,1,2-1H25.64a2.71,2.71,0,0,1-2.11-1H39A1,1,0,0,1,40,58Z"/><path class="cls-6" d="M39,53a1,1,0,0,1-1,1H23.5a2.49,2.49,0,0,1,2-1H22.64a2.71,2.71,0,0,1-2.11-1H38A1,1,0,0,1,39,53Z"/><path class="cls-6" d="M38,48a1,1,0,0,1-1,1H20.5a2.49,2.49,0,0,1,2-1h3a2.49,2.49,0,0,1-2-1H37A1,1,0,0,1,38,48Z"/><rect class="cls-1" x="1" y="10" width="6" height="12"/></g></svg>