<svg xmlns="http://www.w3.org/2000/svg" xmlns:xlink="http://www.w3.org/1999/xlink" viewBox="0 0 64 64"><defs><style>.cls-1{fill:url(#linear-gradient);}.cls-2{fill:#cf4055;}.cls-3{fill:url(#linear-gradient-2);}.cls-4{fill:url(#linear-gradient-3);}.cls-5{fill:#c7cdd8;}.cls-6{fill:url(#linear-gradient-4);}.cls-7{fill:url(#linear-gradient-5);}.cls-8{fill:#eab39b;}</style><linearGradient id="linear-gradient" x1="32" y1="29" x2="32" y2="1" gradientUnits="userSpaceOnUse"><stop offset="0" stop-color="#da5466"/><stop offset="1" stop-color="#f4929c"/></linearGradient><linearGradient id="linear-gradient-2" x1="32" y1="63" x2="32" y2="57" gradientUnits="userSpaceOnUse"><stop offset="0" stop-color="#474f72"/><stop offset="1" stop-color="#878c9f"/></linearGradient><linearGradient id="linear-gradient-3" x1="32" y1="57" x2="32" y2="7" gradientUnits="userSpaceOnUse"><stop offset="0" stop-color="#d4d8e1"/><stop offset="1" stop-color="#f3f4f5"/></linearGradient><linearGradient id="linear-gradient-4" x1="32" y1="37" x2="32" y2="24" gradientUnits="userSpaceOnUse"><stop offset="0" stop-color="#f2c4b0"/><stop offset="1" stop-color="#ffe3d7"/></linearGradient><linearGradient id="linear-gradient-5" y1="57" y2="37" xlink:href="#linear-gradient-4"/></defs><title>Stay at Home</title><g id="Stay_at_Home" data-name="Stay at Home"><polygon class="cls-1" points="63 29 32 7 1 29 1 23 32 1 63 23 63 29"/><polygon class="cls-2" points="63 26 63 29 32 7 1 29 1 26 32 4 63 26"/><rect class="cls-3" x="1" y="57" width="62" height="6"/><polygon class="cls-4" points="56 24.03 56 57 8 57 8 24.03 32 7 56 24.03"/><rect class="cls-5" x="8" y="54" width="48" height="3"/><rect class="cls-6" x="27" y="24" width="10" height="13" rx="5"/><path class="cls-7" d="M42,43V55a2,2,0,0,1-2,2,1.85,1.85,0,0,1-.81-.18h0A2,2,0,0,1,38,55v2H26V55a2,2,0,0,1-1.18,1.82h0A1.85,1.85,0,0,1,24,57a2,2,0,0,1-2-2V43a6,6,0,0,1,6-6h8A6,6,0,0,1,42,43Z"/><path class="cls-8" d="M27.87,42.88V43l-.73,11-.2,3H26V41A1.88,1.88,0,0,1,27.87,42.88Z"/><path class="cls-8" d="M38,41V57h-.93l-.21-3-.73-11v-.12A1.88,1.88,0,0,1,38,41Z"/><path class="cls-8" d="M37,30v2a5,5,0,0,1-10,0V30a5,5,0,0,0,10,0Z"/></g></svg>