<svg xmlns="http://www.w3.org/2000/svg" xmlns:xlink="http://www.w3.org/1999/xlink" viewBox="0 0 64 64"><defs><style>.cls-1{fill:url(#linear-gradient);}.cls-2{fill:url(#linear-gradient-2);}.cls-3{fill:#eab39b;}.cls-4{fill:url(#linear-gradient-3);}.cls-5{fill:#5b8dc9;}.cls-6{fill:url(#linear-gradient-4);}.cls-7{fill:url(#linear-gradient-5);}.cls-8{fill:#8a6762;}.cls-9{fill:url(#linear-gradient-6);}.cls-10{fill:url(#linear-gradient-7);}.cls-11{fill:#c7cdd8;}.cls-12{fill:#42455e;}.cls-13{fill:url(#linear-gradient-8);}.cls-14{fill:#b8c0ce;}</style><linearGradient id="linear-gradient" x1="51" y1="35" x2="51" y2="25" gradientUnits="userSpaceOnUse"><stop offset="0" stop-color="#f2c4b0"/><stop offset="1" stop-color="#ffe3d7"/></linearGradient><linearGradient id="linear-gradient-2" x1="13" y1="35" x2="13" y2="25" gradientTransform="translate(26 60) rotate(180)" xlink:href="#linear-gradient"/><linearGradient id="linear-gradient-3" x1="32" y1="63" x2="32" y2="55" gradientUnits="userSpaceOnUse"><stop offset="0" stop-color="#7aa8d7"/><stop offset="1" stop-color="#c3d2e7"/></linearGradient><linearGradient id="linear-gradient-4" x1="32" y1="59" x2="32" y2="48.83" xlink:href="#linear-gradient"/><linearGradient id="linear-gradient-5" x1="48.5" y1="27" x2="48.5" y2="12.15" gradientUnits="userSpaceOnUse"><stop offset="0" stop-color="#9b756d"/><stop offset="1" stop-color="#bc9388"/></linearGradient><linearGradient id="linear-gradient-6" x1="32" y1="50" x2="32" y2="13.74" xlink:href="#linear-gradient"/><linearGradient id="linear-gradient-7" x1="32" x2="32" y2="1" xlink:href="#linear-gradient-5"/><linearGradient id="linear-gradient-8" x1="32" y1="50" x2="32" y2="34" gradientUnits="userSpaceOnUse"><stop offset="0" stop-color="#d4d8e1"/><stop offset="1" stop-color="#f3f4f5"/></linearGradient></defs><title>Male Patient</title><g id="Male_Patient" data-name="Male Patient"><path class="cls-1" d="M48,25h1.53A4.47,4.47,0,0,1,54,29.47v1.06A4.47,4.47,0,0,1,49.53,35H48a0,0,0,0,1,0,0V25A0,0,0,0,1,48,25Z"/><path class="cls-2" d="M10,25h1.53A4.47,4.47,0,0,1,16,29.47v1.06A4.47,4.47,0,0,1,11.53,35H10a0,0,0,0,1,0,0V25A0,0,0,0,1,10,25Z" transform="translate(26 60) rotate(-180)"/><path class="cls-3" d="M54,31a4,4,0,0,1-4,4H48V33h2a4,4,0,0,0,2.83-1.17,4.08,4.08,0,0,0,1-1.83A3.66,3.66,0,0,1,54,31Z"/><path class="cls-3" d="M16,33v2H14a4,4,0,0,1-4-4,3.66,3.66,0,0,1,.13-1A4,4,0,0,0,14,33Z"/><path class="cls-4" d="M6,63H6a12.32,12.32,0,0,1,11.54-8H46.46A12.32,12.32,0,0,1,58,63H6Z"/><path class="cls-5" d="M40,55c0,3.31-3.58,6-8,6s-8-2.69-8-6Z"/><path class="cls-6" d="M38,48.83V55c0,2.21-2.69,4-6,4s-6-1.79-6-4V48.83Z"/><path class="cls-3" d="M38,53.17V55c0,2.21-2.69,4-6,4s-6-1.79-6-4V53.17c0,2.21,2.69,4,6,4S38,55.38,38,53.17Z"/><path class="cls-7" d="M50.85,12.15A6.92,6.92,0,0,1,52,16V27a7,7,0,0,1-7-7V17.92Z"/><path class="cls-8" d="M52,25v2a7,7,0,0,1-7-7V18A7,7,0,0,0,52,25Z"/><path class="cls-9" d="M48,13.74V34A16,16,0,0,1,32,50h0A16,16,0,0,1,16,34V14Z"/><path class="cls-3" d="M48,32v2a16,16,0,1,1-32,0V32a16,16,0,0,0,32,0Z"/><path class="cls-10" d="M20,15h0a7.24,7.24,0,0,0,6.47,4H40A12,12,0,0,0,52,7h0a6,6,0,0,0-6-6H28a10,10,0,0,0-8,4h0a8,8,0,0,0-8,8V27h0a8,8,0,0,0,8-8V15"/><path class="cls-8" d="M17.66,22.66A8,8,0,0,0,20,17v2a8,8,0,0,1-8,8V25A8,8,0,0,0,17.66,22.66Z"/><path class="cls-8" d="M52,7A12,12,0,0,1,40,19H26.47A7.24,7.24,0,0,1,20,15V13a7.24,7.24,0,0,0,6.47,4H40A12,12,0,0,0,51.94,6.2,5.29,5.29,0,0,1,52,7Z"/><path class="cls-11" d="M48.31,26.05a1,1,0,0,0-1.26.64C45.94,30,43.31,35.34,41,35.34H23c-2.41,0-5-5.3-6.09-8.65a1,1,0,1,0-1.9.62c.33,1,3.34,10,8,10H41c4.53-.06,7.61-9,8-10A1,1,0,0,0,48.31,26.05Z"/><ellipse class="cls-12" cx="24.5" cy="29" rx="1.5" ry="2"/><ellipse class="cls-12" cx="39.5" cy="29" rx="1.5" ry="2"/><path class="cls-8" d="M27.14,26.17a1,1,0,0,1-.7-.29,2.75,2.75,0,0,0-3.9,0,1,1,0,1,1-1.42-1.42,4.77,4.77,0,0,1,6.73,0,1,1,0,0,1,0,1.42A1,1,0,0,1,27.14,26.17Z"/><path class="cls-8" d="M42.17,26.17a1,1,0,0,1-.71-.29,2.75,2.75,0,0,0-3.9,0,1,1,0,0,1-1.41,0,1,1,0,0,1,0-1.42,4.77,4.77,0,0,1,6.73,0,1,1,0,0,1,0,1.42A1,1,0,0,1,42.17,26.17Z"/><path class="cls-13" d="M43,43c0,4-6,7-11,7s-11-3-11-7c0-5,2-9,11-9S43,38,43,43Z"/><path class="cls-14" d="M43,43c0,4-6,7-11,7s-11-3-11-7q0-.69.06-1.35C21.66,45.32,27.3,48,32,48s10.34-2.68,10.94-6.35Q43,42.31,43,43Z"/><path class="cls-14" d="M36,42H28a1,1,0,0,1,0-2h8a1,1,0,0,1,0,2Z"/><path class="cls-14" d="M36,46H28a1,1,0,0,1,0-2h8a1,1,0,0,1,0,2Z"/></g></svg>